<?xml version="1.0" standalone="no"?>
<!DOCTYPE svg PUBLIC "-//W3C//DTD SVG 20010904//EN"
 "http://www.w3.org/TR/2001/REC-SVG-20010904/DTD/svg10.dtd">
<svg version="1.0" xmlns="http://www.w3.org/2000/svg"
 width="294.000000pt" height="320.000000pt" viewBox="0 0 294.000000 320.000000"
 preserveAspectRatio="xMidYMid meet">
<metadata>
Created by potrace 1.15, written by Peter Selinger 2001-2017
</metadata>
<g transform="translate(0.000000,320.000000) scale(0.100000,-0.100000)"
fill="#000000" stroke="none">
<path d="M1255 3150 c-77 -11 -217 -48 -228 -59 -18 -18 2 -31 31 -20 15 6 47
12 72 14 25 1 97 10 160 20 98 15 133 16 235 6 195 -18 363 -75 464 -158 3 -2
0 -8 -6 -14 -9 -9 -9 -16 0 -30 8 -13 8 -40 -1 -106 -23 -164 -103 -292 -276
-443 -81 -70 -98 -90 -78 -90 12 0 197 154 253 211 69 68 128 196 138 299 5
44 12 84 16 88 10 10 169 -160 217 -232 114 -172 168 -354 168 -569 0 -188
-32 -326 -112 -482 -143 -280 -446 -480 -780 -514 -155 -15 -351 15 -493 76
-62 28 -215 122 -215 134 0 14 156 108 221 133 25 10 70 38 100 62 57 47 68
44 51 -15 -29 -103 -31 -115 -20 -128 8 -10 8 -20 0 -38 -9 -19 -8 -28 7 -46
23 -29 51 -19 51 17 0 14 8 37 19 50 21 27 46 143 38 175 -9 34 26 96 74 130
24 18 80 66 124 109 48 46 105 90 141 108 116 59 199 159 219 267 4 26 21 55
47 83 53 57 69 98 114 275 21 86 44 156 54 165 10 10 23 27 29 39 6 13 25 30
42 39 43 22 30 28 -19 9 -63 -26 -105 -97 -158 -271 -26 -87 -60 -157 -73
-150 -15 10 -148 -26 -208 -56 l-63 -31 -20 23 c-15 18 -34 25 -74 28 -49 4
-57 2 -81 -22 -15 -15 -29 -25 -32 -22 -2 2 -11 34 -19 69 -14 62 -17 66 -55
81 -22 9 -52 16 -68 16 -16 0 -44 13 -66 30 -21 17 -41 30 -46 30 -36 0 -79
-59 -56 -78 18 -15 86 -39 129 -47 54 -8 82 -48 73 -100 -4 -22 -9 -54 -12
-72 -4 -23 1 -40 16 -59 28 -36 27 -50 -9 -71 -36 -21 -70 -86 -70 -132 0 -17
7 -46 16 -63 15 -28 15 -34 -2 -69 -9 -22 -41 -60 -70 -85 -30 -25 -61 -58
-71 -74 -9 -16 -29 -34 -43 -39 -15 -5 -46 -27 -70 -50 -26 -24 -61 -46 -90
-54 -58 -17 -120 -63 -120 -88 0 -28 -12 -24 -52 19 -61 63 -124 157 -172 256
-135 275 -139 625 -10 893 48 101 51 113 28 113 -9 0 -27 -26 -45 -65 -17 -36
-35 -65 -41 -65 -11 0 -3 31 23 81 17 34 16 49 -2 49 -17 0 -92 -180 -120
-288 -26 -102 -29 -131 -30 -266 0 -127 4 -167 25 -251 42 -172 106 -304 218
-452 140 -186 306 -310 508 -381 130 -45 209 -57 370 -56 124 0 160 4 250 27
813 211 1104 1252 523 1868 -97 102 -355 268 -373 239 -6 -9 -22 -7 -66 10
-114 42 -214 61 -354 65 -74 2 -162 0 -195 -5z m597 -900 c-50 -81 -129 -140
-189 -140 l-43 0 0 40 c0 36 4 41 43 64 51 30 153 65 183 63 21 -1 21 -2 6
-27z m268 -1024 c0 -3 -26 -25 -57 -49 -197 -150 -454 -223 -699 -198 -53 6
-101 14 -105 18 -4 4 54 6 130 5 157 -4 261 11 405 59 97 32 225 95 284 140
40 30 42 31 42 25z"/>
<path d="M160 765 l0 -105 65 0 c63 0 65 1 65 25 0 22 -4 25 -35 25 -46 0 -49
27 -2 32 24 2 32 8 32 23 0 15 -8 21 -32 23 -25 2 -33 8 -33 23 0 15 7 19 35
19 28 0 35 4 35 20 0 18 -7 20 -65 20 l-65 0 0 -105z"/>
<path d="M1330 764 l0 -106 65 4 c50 3 70 9 89 27 48 45 40 138 -15 166 -15 8
-53 15 -84 15 l-55 0 0 -106z"/>
<path d="M2230 830 c0 -21 -9 -23 -100 -24 l-35 -1 -3 -73 -3 -73 27 3 c23 3
27 8 29 41 2 45 12 57 51 60 28 2 29 1 32 -50 3 -49 5 -53 28 -53 22 0 24 4
24 49 0 28 5 53 10 56 6 3 10 15 10 26 0 10 -4 19 -10 19 -5 0 -10 9 -10 20 0
15 -7 20 -25 20 -18 0 -25 -5 -25 -20z"/>
<path d="M593 795 c-10 -26 4 -106 21 -123 10 -10 33 -17 57 -17 54 0 69 22
69 98 0 55 -1 58 -22 55 -20 -3 -23 -10 -26 -51 -2 -32 -8 -50 -19 -54 -21 -8
-33 14 -33 65 0 36 -3 42 -20 42 -11 0 -23 -7 -27 -15z"/>
<path d="M796 789 c-49 -38 -27 -118 37 -134 30 -8 77 10 77 30 0 12 -10 15
-41 13 -27 -2 -43 2 -46 10 -3 9 11 12 52 12 l57 0 -6 28 c-14 59 -80 80 -130
41z"/>
<path d="M1056 791 c-41 -45 -4 -153 47 -136 12 4 39 7 60 6 l38 -2 -3 73 -3
72 -61 3 c-49 2 -65 -1 -78 -16z"/>
<path d="M1566 789 c-49 -38 -27 -118 37 -134 30 -8 77 10 77 30 0 12 -10 15
-41 13 -26 -2 -43 2 -46 9 -3 8 13 13 49 15 50 3 53 4 50 28 -5 56 -77 78
-126 39z"/>
<path d="M1725 801 c-7 -6 -6 -197 1 -203 3 -3 14 -4 25 -1 14 4 19 14 19 40
0 30 2 33 20 23 49 -26 108 30 95 90 -10 45 -33 59 -98 57 -32 -1 -60 -3 -62
-6z"/>
<path d="M1929 791 c-31 -25 -32 -83 -1 -113 52 -53 152 -5 138 66 -12 61 -87
87 -137 47z"/>
<path d="M2590 790 c-45 -45 -3 -153 53 -134 12 5 37 7 55 6 l33 -2 -3 72 -3
73 -58 2 c-46 2 -62 -2 -77 -17z"/>
<path d="M268 537 c-45 -38 -69 -99 -66 -170 3 -55 5 -62 25 -65 19 -3 21 0
16 35 -6 49 11 65 64 61 35 -3 38 -5 37 -33 0 -16 -4 -38 -8 -47 -7 -15 -3
-18 18 -18 26 0 26 1 26 75 0 81 -11 116 -49 158 -30 33 -29 33 -63 4z"/>
<path d="M443 549 c-9 -9 -13 -50 -13 -131 l0 -118 25 0 c24 0 25 3 23 42 -3
40 -1 43 49 77 28 20 56 46 62 58 12 26 0 68 -21 75 -30 11 -114 8 -125 -3z"/>
<path d="M670 528 c-63 -69 -84 -228 -30 -228 15 0 17 6 13 39 -5 33 -2 41 16
51 12 6 36 10 54 8 28 -3 32 -6 31 -33 0 -16 -4 -38 -8 -47 -7 -15 -3 -18 18
-18 14 0 27 6 27 13 1 6 3 23 5 37 6 51 -18 137 -48 174 -16 20 -34 36 -39 36
-6 0 -23 -14 -39 -32z"/>
<path d="M1071 528 c-64 -69 -85 -228 -31 -228 16 0 18 6 13 36 -7 45 13 64
69 64 36 0 38 -2 38 -31 0 -17 -5 -39 -10 -50 -9 -16 -7 -19 14 -19 21 0 26 6
31 43 11 71 -20 168 -65 204 -22 18 -26 16 -59 -19z"/>
<path d="M1252 548 c-8 -8 -12 -52 -12 -130 l0 -118 25 0 c24 0 25 2 19 39 -6
38 -5 39 49 77 31 22 61 49 66 62 14 29 -4 68 -33 76 -37 10 -102 6 -114 -6z"/>
<path d="M1486 534 c-35 -36 -54 -77 -62 -135 -8 -63 1 -99 26 -99 16 0 18 5
13 36 -8 46 13 64 70 64 l40 0 -7 -50 c-6 -45 -5 -50 13 -50 26 0 34 30 26 99
-8 67 -26 112 -54 140 -27 27 -33 26 -65 -5z"/>
<path d="M1826 519 c-39 -47 -62 -128 -51 -185 5 -29 10 -34 32 -34 21 0 24 3
15 12 -7 7 -12 24 -12 38 0 37 18 50 66 50 47 0 59 -15 44 -56 -14 -36 -13
-44 9 -44 56 0 35 176 -28 239 -12 12 -25 21 -30 21 -5 0 -25 -19 -45 -41z"/>
<path d="M2003 544 c-18 -47 27 -244 55 -244 4 0 16 17 27 38 11 20 25 37 30
37 5 0 19 -17 30 -37 11 -21 23 -38 27 -38 4 0 20 24 34 52 21 42 27 68 28
127 1 51 -3 75 -11 78 -10 4 -13 -13 -13 -64 0 -67 -14 -113 -37 -120 -16 -6
-33 60 -33 130 0 44 -3 57 -15 57 -12 0 -15 -13 -16 -57 -1 -62 -18 -124 -37
-131 -20 -6 -34 39 -34 114 0 57 -4 74 -14 74 -8 0 -17 -7 -21 -16z"/>
<path d="M2338 533 c-51 -55 -73 -121 -62 -189 5 -38 10 -44 30 -44 21 0 23 3
14 19 -26 50 -2 81 66 81 l37 0 -6 -51 c-6 -48 -5 -50 16 -47 19 3 22 10 25
53 4 62 -14 130 -45 173 -29 39 -42 40 -75 5z"/>
<path d="M2561 531 c-41 -42 -63 -106 -59 -171 3 -47 6 -55 24 -58 20 -3 21 0
17 42 -5 42 -4 45 20 51 13 4 38 5 53 3 25 -3 29 -7 28 -33 0 -16 -4 -38 -8
-47 -6 -14 -3 -18 13 -18 30 0 40 33 31 106 -8 65 -20 96 -53 132 -26 28 -32
28 -66 -7z"/>
<path d="M1000 140 l0 -70 44 0 c47 0 75 18 77 48 4 62 -23 92 -82 92 l-39 0
0 -70z"/>
</g>
</svg>
